<svg xmlns="http://www.w3.org/2000/svg" viewBox="0 0 750 444.24"><defs><style>.cls-1{fill:#e0e0e0;}.cls-2{fill:#ebebeb;}.cls-3{fill:#f0f0f0;}.cls-4{fill:#f5f5f5;}.cls-5{fill:#407bff;}.cls-10,.cls-12,.cls-6{opacity:0.3;}.cls-7{fill:#263238;}.cls-10,.cls-11,.cls-15,.cls-16,.cls-23,.cls-24,.cls-8,.cls-9{fill:#fff;}.cls-9{opacity:0.5;}.cls-11,.cls-24{opacity:0.6;}.cls-13,.cls-19,.cls-20,.cls-21,.cls-22{fill:none;}.cls-13{stroke:#407bff;}.cls-13,.cls-19,.cls-20,.cls-21{stroke-linecap:round;stroke-linejoin:round;}.cls-14{fill:#ffb7b1;}.cls-15,.cls-16,.cls-17,.cls-22,.cls-23,.cls-24{isolation:isolate;}.cls-15{opacity:0.4;}.cls-16{opacity:0.8;}.cls-17,.cls-20,.cls-22,.cls-23{opacity:0.2;}.cls-18{fill:#ff6e6a;}.cls-19,.cls-20,.cls-21,.cls-22{stroke:#263238;}.cls-19,.cls-20{stroke-width:0.5px;}.cls-21,.cls-22{stroke-width:2px;}.cls-22{stroke-miterlimit:10;}</style></defs><g id="Layer_2" data-name="Layer 2"><g id="Character"><path class="cls-1" d="M691.65,294H510.9a5.87,5.87,0,0,1-5.86-5.87V24.89A5.87,5.87,0,0,1,510.9,19H691.65a5.87,5.87,0,0,1,5.86,5.86V288.16A5.87,5.87,0,0,1,691.65,294ZM510.9,19.28a5.62,5.62,0,0,0-5.61,5.61V288.16a5.62,5.62,0,0,0,5.61,5.62H691.65a5.62,5.62,0,0,0,5.61-5.62V24.89a5.62,5.62,0,0,0-5.61-5.61Z"/><path class="cls-1" d="M483.22,294H302.47a5.87,5.87,0,0,1-5.86-5.87V24.89A5.87,5.87,0,0,1,302.47,19H483.22a5.87,5.87,0,0,1,5.86,5.86V288.16A5.87,5.87,0,0,1,483.22,294ZM302.47,19.28a5.62,5.62,0,0,0-5.61,5.61V288.16a5.62,5.62,0,0,0,5.61,5.62H483.22a5.62,5.62,0,0,0,5.61-5.62V24.89a5.61,5.61,0,0,0-5.61-5.61Z"/><path class="cls-1" d="M274.93,294H94.18a5.87,5.87,0,0,1-5.86-5.87V24.89A5.87,5.87,0,0,1,94.18,19H274.93a5.87,5.87,0,0,1,5.86,5.86V288.16A5.87,5.87,0,0,1,274.93,294ZM94.18,19.28a5.62,5.62,0,0,0-5.61,5.61V288.16a5.62,5.62,0,0,0,5.61,5.62H274.93a5.62,5.62,0,0,0,5.61-5.62V24.89a5.62,5.62,0,0,0-5.61-5.61Z"/><rect class="cls-1" y="355.1" width="750" height="0.12"/><rect class="cls-2" x="653.63" y="384.47" width="55.73" height="0.42"/><rect class="cls-2" x="495.04" y="389.04" width="14.63" height="0.42"/><rect class="cls-2" x="40.64" y="371.67" width="72.67" height="0.42"/><rect class="cls-2" x="128.3" y="371.67" width="10.66" height="0.42"/><rect class="cls-2" x="173.59" y="378.78" width="157.61" height="0.42"/><path class="cls-3" d="M268,41.14H238.09a1.59,1.59,0,0,1-1.41-1.72V32.18a1.59,1.59,0,0,1,1.41-1.72H268a1.59,1.59,0,0,1,1.42,1.72v7.24A1.59,1.59,0,0,1,268,41.14Z"/><path class="cls-3" d="M268,67.63H238.09a1.59,1.59,0,0,1-1.41-1.72V58.67A1.59,1.59,0,0,1,238.09,57H268a1.59,1.59,0,0,1,1.42,1.72v7.24A1.59,1.59,0,0,1,268,67.63Z"/><path class="cls-3" d="M278,54.38H248.11a1.59,1.59,0,0,1-1.42-1.72V45.42a1.58,1.58,0,0,1,1.42-1.71H278a1.58,1.58,0,0,1,1.42,1.71v7.24A1.59,1.59,0,0,1,278,54.38Z"/><path class="cls-2" d="M243.74,54.38H213.81a1.59,1.59,0,0,1-1.42-1.72V45.42a1.58,1.58,0,0,1,1.42-1.71h29.93a1.58,1.58,0,0,1,1.42,1.71v7.24A1.59,1.59,0,0,1,243.74,54.38Z"/><path class="cls-3" d="M541.45,242.57H511.51a1.58,1.58,0,0,1-1.41-1.71v-7.25a1.58,1.58,0,0,1,1.41-1.71h29.94a1.58,1.58,0,0,1,1.41,1.71v7.25A1.58,1.58,0,0,1,541.45,242.57Z"/><path class="cls-3" d="M541.45,269.06H511.51a1.59,1.59,0,0,1-1.41-1.72V260.1a1.59,1.59,0,0,1,1.41-1.72h29.94a1.59,1.59,0,0,1,1.41,1.72v7.24A1.59,1.59,0,0,1,541.45,269.06Z"/><path class="cls-3" d="M551.46,255.82H521.53a1.59,1.59,0,0,1-1.42-1.72v-7.24a1.59,1.59,0,0,1,1.42-1.72h29.93a1.59,1.59,0,0,1,1.42,1.72v7.24A1.59,1.59,0,0,1,551.46,255.82Z"/><path class="cls-2" d="M517.16,255.82H487.23a1.59,1.59,0,0,1-1.42-1.72v-7.24a1.59,1.59,0,0,1,1.42-1.72h29.93a1.59,1.59,0,0,1,1.42,1.72v7.24A1.59,1.59,0,0,1,517.16,255.82Z"/><path class="cls-3" d="M363.53,229.49H333.59a1.59,1.59,0,0,1-1.41-1.72v-7.24a1.59,1.59,0,0,1,1.41-1.72h29.94a1.59,1.59,0,0,1,1.41,1.72v7.24A1.59,1.59,0,0,1,363.53,229.49Z"/><path class="cls-2" d="M353.13,242.57H323.2a1.59,1.59,0,0,1-1.42-1.71v-7.25a1.59,1.59,0,0,1,1.42-1.71h29.93a1.58,1.58,0,0,1,1.42,1.71v7.25A1.58,1.58,0,0,1,353.13,242.57Z"/><path class="cls-3" d="M375.87,129.64H345.93a1.59,1.59,0,0,1-1.42-1.72v-7.24a1.59,1.59,0,0,1,1.42-1.72h29.94a1.59,1.59,0,0,1,1.41,1.72v7.24A1.59,1.59,0,0,1,375.87,129.64Z"/><path class="cls-3" d="M499.28,22.11H469.34a1.59,1.59,0,0,1-1.42-1.72V13.15a1.59,1.59,0,0,1,1.42-1.72h29.94a1.59,1.59,0,0,1,1.41,1.72v7.24A1.59,1.59,0,0,1,499.28,22.11Z"/><path class="cls-3" d="M563.66,121H533.73a1.59,1.59,0,0,1-1.42-1.72V112a1.59,1.59,0,0,1,1.42-1.72h29.93a1.59,1.59,0,0,1,1.42,1.72v7.24A1.59,1.59,0,0,1,563.66,121Z"/><path class="cls-3" d="M527.73,121H497.79a1.59,1.59,0,0,1-1.41-1.72V112a1.59,1.59,0,0,1,1.41-1.72h29.94a1.59,1.59,0,0,1,1.41,1.72v7.24A1.59,1.59,0,0,1,527.73,121Z"/><path class="cls-2" d="M551.68,134.74l-29.93.19a1.59,1.59,0,0,1-1.43-1.71l0-7.24a1.59,1.59,0,0,1,1.4-1.73l29.94-.18a1.58,1.58,0,0,1,1.42,1.71l.05,7.24A1.59,1.59,0,0,1,551.68,134.74Z"/><path class="cls-3" d="M671.9,38.48H642a1.59,1.59,0,0,1-1.42-1.72V29.52A1.59,1.59,0,0,1,642,27.8H671.9a1.59,1.59,0,0,1,1.42,1.72v7.24A1.59,1.59,0,0,1,671.9,38.48Z"/><path class="cls-2" d="M659.93,52.24,630,52.43a1.6,1.6,0,0,1-1.43-1.71l0-7.24a1.58,1.58,0,0,1,1.4-1.73l29.94-.19a1.6,1.6,0,0,1,1.43,1.71l0,7.24A1.58,1.58,0,0,1,659.93,52.24Z"/><path class="cls-3" d="M94.94,57.44H65a1.59,1.59,0,0,1-1.41-1.72V48.48A1.59,1.59,0,0,1,65,46.76H94.94a1.59,1.59,0,0,1,1.41,1.72v7.24A1.59,1.59,0,0,1,94.94,57.44Z"/><path class="cls-3" d="M169.39,10.68H139.45A1.59,1.59,0,0,1,138,9V1.72A1.59,1.59,0,0,1,139.45,0h29.94a1.59,1.59,0,0,1,1.41,1.72V9A1.59,1.59,0,0,1,169.39,10.68Z"/><path class="cls-2" d="M86,71.4l-32.26.2a1.63,1.63,0,0,1-1.54-1.71l0-7.24a1.63,1.63,0,0,1,1.51-1.73l32.26-.2a1.64,1.64,0,0,1,1.54,1.71l0,7.24A1.62,1.62,0,0,1,86,71.4Z"/><path class="cls-4" d="M690.06,425.7c0,10.24-141.06,18.54-315.06,18.54S59.94,435.94,59.94,425.7,201,407.16,375,407.16,690.06,415.46,690.06,425.7Z"/><path class="cls-2" d="M412,145.64H382a1.59,1.59,0,0,1-1.42-1.72v-7.24A1.59,1.59,0,0,1,382,135H412a1.59,1.59,0,0,1,1.41,1.72v7.24A1.59,1.59,0,0,1,412,145.64Z"/><rect class="cls-5" x="326.72" y="31.92" width="50.4" height="42.85"/><rect class="cls-6" x="326.72" y="31.92" width="10.33" height="42.85"/><path class="cls-7" d="M326.73,55.4h49.76a.38.38,0,0,0,0-.75H326.73a.38.38,0,0,0,0,.75Z"/><rect class="cls-8" x="340.14" y="57.59" width="6.45" height="8.94"/><rect class="cls-5" x="437.41" y="31.92" width="50.4" height="42.85"/><rect class="cls-9" x="437.41" y="31.92" width="50.4" height="42.85"/><rect class="cls-6" x="437.41" y="31.92" width="10.33" height="42.85"/><path class="cls-7" d="M437.41,55.4h49.76a.38.38,0,0,0,0-.75H437.41a.38.38,0,0,0,0,.75Z"/><rect class="cls-8" x="450.83" y="57.59" width="6.45" height="8.94"/><rect class="cls-5" x="382.04" y="54.93" width="50.4" height="19.74"/><rect class="cls-6" x="382.04" y="54.93" width="10.33" height="19.74"/><rect class="cls-8" x="395.46" y="66.33" width="10.35" height="4.55"/><rect class="cls-5" x="389.02" y="35.37" width="50.4" height="19.74"/><rect class="cls-6" x="389.02" y="35.37" width="10.33" height="19.74"/><rect class="cls-8" x="402.44" y="46.77" width="10.35" height="4.55"/><rect class="cls-5" x="371.23" y="90.98" width="70.41" height="87.76"/><rect class="cls-9" x="371.23" y="90.98" width="70.41" height="87.76"/><rect class="cls-6" x="371.23" y="90.98" width="9.17" height="88.28"/><rect class="cls-8" x="407.53" y="117.29" width="6.38" height="14.23"/><path class="cls-7" d="M371.23,117.67h70.4a.38.38,0,0,0,0-.75h-70.4a.38.38,0,0,0,0,.75Z"/><path class="cls-7" d="M371.23,148.65H442a.38.38,0,0,0,0-.75H371.23a.38.38,0,0,0,0,.75Z"/><rect class="cls-8" x="407.53" y="90.98" width="6.38" height="14.23"/><rect class="cls-8" x="420.97" y="151.17" width="14.28" height="6.28"/><path class="cls-7" d="M314.25,73.5v23l12.2-11.22H501.38l10.78,9.35V73.5Zm43,7.46H338.74V78.41h18.55Zm33.14,0H371.88V78.41h18.55Zm33.15,0H405V78.41h18.56Zm33.14,0H438.17V78.41h18.55Zm32.4,0H470.57V78.41h18.55Z"/><path class="cls-10" d="M314.25,73.5v23l12.2-11.22H501.38l10.78,9.35V73.5Zm43,7.46H338.74V78.41h18.55Zm33.14,0H371.88V78.41h18.55Zm33.15,0H405V78.41h18.56Zm33.14,0H438.17V78.41h18.55Zm32.4,0H470.57V78.41h18.55Z"/><path class="cls-7" d="M314.25,191.41v23l12.2-11.22H501.38l10.78,9.35v-21.1Zm43,7.46H338.74v-2.55h18.55Zm33.14,0H371.88v-2.55h18.55Zm33.15,0H405v-2.55h18.56Zm33.14,0H438.17v-2.55h18.55Zm32.4,0H470.57v-2.55h18.55Z"/><path class="cls-10" d="M314.25,191.41v23l12.2-11.22H501.38l10.78,9.35v-21.1Zm43,7.46H338.74v-2.55h18.55Zm33.14,0H371.88v-2.55h18.55Zm33.15,0H405v-2.55h18.56Zm33.14,0H438.17v-2.55h18.55Zm32.4,0H470.57v-2.55h18.55Z"/><rect class="cls-7" x="326.1" y="178.88" width="9.83" height="12.39"/><rect class="cls-7" x="371.23" y="178.88" width="9.83" height="12.39"/><rect class="cls-7" x="335.01" y="178.88" width="38.27" height="5.64"/><rect class="cls-7" x="380.25" y="178.88" width="9.83" height="12.39"/><rect class="cls-7" x="425.37" y="178.88" width="9.83" height="12.39"/><rect class="cls-7" x="389.16" y="178.88" width="38.27" height="5.64"/><rect class="cls-7" x="435.71" y="178.88" width="9.83" height="12.39"/><rect class="cls-7" x="480.84" y="178.88" width="9.83" height="12.39"/><rect class="cls-7" x="444.62" y="178.88" width="38.27" height="5.64"/><rect class="cls-5" x="326.72" y="136.03" width="50.4" height="42.85"/><rect class="cls-6" x="326.72" y="136.03" width="10.33" height="42.71"/><path class="cls-7" d="M326.73,159.52h49.76a.38.38,0,0,0,0-.75H326.73a.38.38,0,0,0,0,.75Z"/><rect class="cls-8" x="364.78" y="138.97" width="6.45" height="8.94"/><rect class="cls-8" x="340.14" y="161.71" width="6.45" height="8.94"/><rect class="cls-5" x="441.63" y="143.99" width="47.53" height="34.75"/><rect class="cls-6" x="441.63" y="143.99" width="9.43" height="34.75"/><rect class="cls-8" x="457.37" y="148.28" width="9.17" height="11.61"/><rect class="cls-5" x="371.23" y="246.03" width="70.41" height="87.76"/><rect class="cls-6" x="371.23" y="246.03" width="9.17" height="88.28"/><rect class="cls-8" x="407.53" y="272.34" width="6.38" height="14.23"/><path class="cls-7" d="M371.23,272.71h70.4a.38.38,0,0,0,0-.75h-70.4a.38.38,0,0,0,0,.75Z"/><path class="cls-7" d="M371.23,303.7H442a.38.38,0,0,0,0-.75H371.23a.38.38,0,0,0,0,.75Z"/><rect class="cls-8" x="407.53" y="246.03" width="6.38" height="14.23"/><rect class="cls-8" x="420.97" y="306.22" width="14.28" height="6.28"/><path class="cls-7" d="M314.25,346.46v23l12.2-11.21H501.38l10.78,9.34V346.46Zm43,7.45H338.74v-2.55h18.55Zm33.14,0H371.88v-2.55h18.55Zm33.15,0H405v-2.55h18.56Zm33.14,0H438.17v-2.55h18.55Zm32.4,0H470.57v-2.55h18.55Z"/><path class="cls-10" d="M314.25,346.46v23l12.2-11.21H501.38l10.78,9.34V346.46Zm43,7.45H338.74v-2.55h18.55Zm33.14,0H371.88v-2.55h18.55Zm33.15,0H405v-2.55h18.56Zm33.14,0H438.17v-2.55h18.55Zm32.4,0H470.57v-2.55h18.55Z"/><rect class="cls-7" x="326.1" y="333.93" width="9.83" height="12.39"/><rect class="cls-7" x="371.23" y="333.93" width="9.83" height="12.39"/><rect class="cls-7" x="335.01" y="333.93" width="38.27" height="5.64"/><rect class="cls-7" x="380.25" y="333.93" width="9.83" height="12.39"/><rect class="cls-7" x="425.37" y="333.93" width="9.83" height="12.39"/><rect class="cls-7" x="389.16" y="333.93" width="38.27" height="5.64"/><rect class="cls-7" x="435.71" y="333.93" width="9.83" height="12.39"/><rect class="cls-7" x="480.84" y="333.93" width="9.83" height="12.39"/><rect class="cls-7" x="444.62" y="333.93" width="38.27" height="5.64"/><rect class="cls-5" x="326.72" y="291.08" width="50.4" height="42.85"/><rect class="cls-9" x="326.72" y="291.08" width="50.4" height="42.85"/><path class="cls-7" d="M326.73,314.56h49.76a.38.38,0,0,0,0-.75H326.73a.38.38,0,0,0,0,.75Z"/><rect class="cls-8" x="364.78" y="294.02" width="6.45" height="8.94"/><rect class="cls-8" x="340.14" y="316.76" width="6.45" height="8.94"/><rect class="cls-5" x="441.63" y="299.38" width="47.53" height="34.75"/><rect class="cls-6" x="441.63" y="299.38" width="9.43" height="34.75"/><rect class="cls-8" x="457.37" y="303.67" width="9.17" height="11.61"/><rect class="cls-5" x="441.63" y="264.48" width="47.53" height="34.75"/><rect class="cls-9" x="441.63" y="264.48" width="47.53" height="34.75"/><rect class="cls-6" x="441.63" y="264.48" width="9.43" height="34.75"/><rect class="cls-8" x="457.37" y="268.77" width="9.17" height="11.61"/><rect class="cls-5" x="329.4" y="256.36" width="47.53" height="34.92"/><rect class="cls-6" x="329.4" y="256.36" width="9.43" height="34.92"/><rect class="cls-8" x="345.14" y="260.67" width="9.17" height="11.66"/><path class="cls-7" d="M327,291.65h49.95a.38.38,0,0,0,0-.75H327a.38.38,0,0,0,0,.75Z"/><rect class="cls-7" x="310.45" y="16.67" width="7.61" height="369.91"/><rect class="cls-10" x="310.45" y="16.67" width="7.61" height="369.91"/><rect class="cls-7" x="508.35" y="16.67" width="7.61" height="369.91"/><rect class="cls-10" x="508.35" y="16.67" width="7.61" height="369.91"/><path class="cls-7" d="M488.74,298.84H442.87a.38.38,0,0,0,0,.75h45.87a.38.38,0,0,0,0-.75Z"/><rect class="cls-5" x="651.55" y="31.92" width="50.4" height="42.85"/><rect class="cls-6" x="651.55" y="31.92" width="10.33" height="42.85"/><path class="cls-7" d="M651.56,55.4h49.76a.38.38,0,0,0,0-.75H651.56a.38.38,0,0,0,0,.75Z"/><rect class="cls-8" x="664.97" y="57.59" width="6.45" height="8.94"/><rect class="cls-5" x="596.18" y="54.93" width="50.4" height="19.74"/><rect class="cls-6" x="596.18" y="54.93" width="10.33" height="19.74"/><rect class="cls-8" x="609.6" y="66.33" width="10.35" height="4.55"/><rect class="cls-5" x="542.18" y="54.93" width="50.4" height="19.74"/><rect class="cls-9" x="542.18" y="54.93" width="50.4" height="19.74"/><rect class="cls-6" x="542.18" y="54.93" width="10.33" height="19.74"/><rect class="cls-8" x="555.6" y="66.33" width="10.35" height="4.55"/><rect class="cls-5" x="585.37" y="117.29" width="70.41" height="61.45"/><rect class="cls-6" x="585.37" y="117.29" width="9.17" height="61.97"/><rect class="cls-8" x="621.68" y="117.29" width="6.38" height="14.23"/><path class="cls-7" d="M585.37,148.65h70.81a.38.38,0,0,0,0-.75H585.37a.38.38,0,0,0,0,.75Z"/><rect class="cls-8" x="635.11" y="151.17" width="14.28" height="6.28"/><path class="cls-7" d="M528.39,73.5v23L540.6,85.25H715.52L726.3,94.6V73.5ZM571.44,81H552.88V78.41h18.56Zm33.14,0H586V78.41h18.56Zm33.14,0H619.17V78.41h18.55Zm33.14,0H652.31V78.41h18.55Zm32.41,0H684.71V78.41h18.56Z"/><path class="cls-10" d="M528.39,73.5v23L540.6,85.25H715.52L726.3,94.6V73.5ZM571.44,81H552.88V78.41h18.56Zm33.14,0H586V78.41h18.56Zm33.14,0H619.17V78.41h18.55Zm33.14,0H652.31V78.41h18.55Zm32.41,0H684.71V78.41h18.56Z"/><path class="cls-7" d="M528.39,191.41v23l12.21-11.22H715.52l10.78,9.35v-21.1Zm43.05,7.46H552.88v-2.55h18.56Zm33.14,0H586v-2.55h18.56Zm33.14,0H619.17v-2.55h18.55Zm33.14,0H652.31v-2.55h18.55Zm32.41,0H684.71v-2.55h18.56Z"/><path class="cls-10" d="M528.39,191.41v23l12.21-11.22H715.52l10.78,9.35v-21.1Zm43.05,7.46H552.88v-2.55h18.56Zm33.14,0H586v-2.55h18.56Zm33.14,0H619.17v-2.55h18.55Zm33.14,0H652.31v-2.55h18.55Zm32.41,0H684.71v-2.55h18.56Z"/><rect class="cls-7" x="540.25" y="178.88" width="9.83" height="12.39"/><rect class="cls-7" x="585.37" y="178.88" width="9.83" height="12.39"/><rect class="cls-7" x="549.15" y="178.88" width="38.27" height="5.64"/><rect class="cls-7" x="594.39" y="178.88" width="9.83" height="12.39"/><rect class="cls-7" x="639.52" y="178.88" width="9.83" height="12.39"/><rect class="cls-7" x="603.3" y="178.88" width="38.27" height="5.64"/><rect class="cls-7" x="649.86" y="178.88" width="9.83" height="12.39"/><rect class="cls-7" x="694.98" y="178.88" width="9.83" height="12.39"/><rect class="cls-7" x="658.76" y="178.88" width="38.27" height="5.64"/><rect class="cls-5" x="540.86" y="136.03" width="50.4" height="42.85"/><rect class="cls-10" x="540.86" y="136.03" width="50.4" height="42.85"/><rect class="cls-6" x="540.86" y="136.03" width="10.33" height="42.71"/><path class="cls-7" d="M540.87,159.52h49.76a.38.38,0,0,0,0-.75H540.87a.38.38,0,0,0,0,.75Z"/><rect class="cls-8" x="578.93" y="138.97" width="6.45" height="8.94"/><rect class="cls-8" x="554.28" y="161.71" width="6.45" height="8.94"/><rect class="cls-5" x="655.78" y="143.99" width="47.53" height="34.75"/><rect class="cls-10" x="655.78" y="143.99" width="47.53" height="34.75"/><rect class="cls-6" x="655.78" y="143.99" width="9.43" height="34.75"/><rect class="cls-8" x="671.51" y="148.28" width="9.17" height="11.61"/><rect class="cls-5" x="626.43" y="246.03" width="70.41" height="87.76"/><rect class="cls-6" x="626.43" y="246.03" width="9.17" height="88.28"/><rect class="cls-8" x="662.74" y="272.34" width="6.38" height="14.23"/><path class="cls-7" d="M626.43,272.71h70.41a.38.38,0,0,0,0-.75H626.43a.38.38,0,0,0,0,.75Z"/><path class="cls-7" d="M626.43,303.7h70.81a.38.38,0,0,0,0-.75H626.43a.38.38,0,0,0,0,.75Z"/><rect class="cls-8" x="662.74" y="246.03" width="6.38" height="14.23"/><rect class="cls-8" x="676.17" y="306.22" width="14.28" height="6.28"/><rect class="cls-5" x="558.87" y="246.03" width="70.41" height="87.76"/><rect class="cls-9" x="558.87" y="246.03" width="70.41" height="87.76"/><rect class="cls-6" x="558.87" y="246.03" width="9.17" height="88.28"/><rect class="cls-8" x="595.17" y="272.34" width="6.38" height="14.23"/><path class="cls-7" d="M558.87,272.71h70.4a.38.38,0,0,0,0-.75h-70.4a.38.38,0,0,0,0,.75Z"/><path class="cls-7" d="M558.87,303.7h70.8a.38.38,0,0,0,0-.75h-70.8a.38.38,0,0,0,0,.75Z"/><rect class="cls-8" x="595.17" y="246.03" width="6.38" height="14.23"/><rect class="cls-8" x="608.61" y="306.22" width="14.28" height="6.28"/><path class="cls-7" d="M528.39,346.46v23l12.21-11.21H715.52l10.78,9.34V346.46Zm43.05,7.45H552.88v-2.55h18.56Zm33.14,0H586v-2.55h18.56Zm33.14,0H619.17v-2.55h18.55Zm33.14,0H652.31v-2.55h18.55Zm32.41,0H684.71v-2.55h18.56Z"/><path class="cls-10" d="M528.39,346.46v23l12.21-11.21H715.52l10.78,9.34V346.46Zm43.05,7.45H552.88v-2.55h18.56Zm33.14,0H586v-2.55h18.56Zm33.14,0H619.17v-2.55h18.55Zm33.14,0H652.31v-2.55h18.55Zm32.41,0H684.71v-2.55h18.56Z"/><rect class="cls-7" x="626.37" y="333.37" width="9.83" height="12.39"/><rect class="cls-7" x="687.07" y="333.37" width="9.83" height="12.39"/><rect class="cls-7" x="635.27" y="333.37" width="58.19" height="5.64"/><rect class="cls-7" x="556.63" y="333.37" width="9.83" height="12.39"/><rect class="cls-7" x="617.34" y="333.37" width="9.83" height="12.39"/><rect class="cls-7" x="565.54" y="333.37" width="58.19" height="5.64"/><rect class="cls-5" x="649.31" y="211.1" width="47.53" height="34.92"/><rect class="cls-6" x="649.31" y="211.1" width="9.43" height="34.92"/><rect class="cls-8" x="665.04" y="215.41" width="9.17" height="11.66"/><path class="cls-7" d="M649.31,246.4h47.53a.38.38,0,0,0,0-.75H649.31a.38.38,0,0,0,0,.75Z"/><rect class="cls-7" x="524.59" y="16.67" width="7.61" height="369.91"/><rect class="cls-10" x="524.59" y="16.67" width="7.61" height="369.91"/><rect class="cls-7" x="722.5" y="16.67" width="7.61" height="369.91"/><rect class="cls-10" x="722.5" y="16.67" width="7.61" height="369.91"/><rect class="cls-5" x="655.78" y="118.94" width="51.81" height="12.58"/><rect class="cls-6" x="655.78" y="118.94" width="9.44" height="12.51"/><rect class="cls-8" x="696.43" y="120.72" width="9.1" height="4.48"/><rect class="cls-5" x="655.78" y="131.52" width="51.81" height="12.58"/><rect class="cls-6" x="655.78" y="131.52" width="9.44" height="12.51"/><rect class="cls-8" x="696.43" y="133.29" width="9.1" height="4.48"/><path class="cls-7" d="M656.23,132.09h51.49a.38.38,0,0,0,0-.75H656.23a.38.38,0,0,0,0,.75Z"/><rect class="cls-7" x="50.59" y="87.86" width="239.53" height="268.47"/><rect class="cls-11" x="50.59" y="87.86" width="239.53" height="268.47"/><path class="cls-7" d="M50.8,99.5H290.11a.38.38,0,0,0,0-.75H50.8a.38.38,0,0,0,0,.75Z"/><path class="cls-7" d="M50.8,113.62H290.11a.38.38,0,0,0,0-.75H50.8a.38.38,0,0,0,0,.75Z"/><path class="cls-7" d="M50.8,127.74H290.11a.38.38,0,0,0,0-.75H50.8a.38.38,0,0,0,0,.75Z"/><path class="cls-7" d="M50.8,143.17H290.11a.38.38,0,0,0,0-.75H50.8a.38.38,0,0,0,0,.75Z"/><path class="cls-7" d="M50.8,157.29H290.11a.38.38,0,0,0,0-.75H50.8a.38.38,0,0,0,0,.75Z"/><path class="cls-7" d="M50.8,171.41H290.11a.38.38,0,0,0,0-.75H50.8a.38.38,0,0,0,0,.75Z"/><path class="cls-7" d="M50.8,186.83H290.11a.38.38,0,0,0,0-.75H50.8a.38.38,0,0,0,0,.75Z"/><path class="cls-7" d="M50.8,201H290.11a.38.38,0,0,0,0-.75H50.8a.38.38,0,0,0,0,.75Z"/><path class="cls-7" d="M50.8,215.07H290.11a.38.38,0,0,0,0-.75H50.8a.38.38,0,0,0,0,.75Z"/><path class="cls-7" d="M50.8,230.5H290.11a.38.38,0,0,0,0-.75H50.8a.38.38,0,0,0,0,.75Z"/><path class="cls-7" d="M50.8,244.62H290.11a.38.38,0,0,0,0-.75H50.8a.38.38,0,0,0,0,.75Z"/><path class="cls-7" d="M50.8,258.74H290.11a.38.38,0,0,0,0-.75H50.8a.38.38,0,0,0,0,.75Z"/><path class="cls-7" d="M50.8,274.16H290.11a.38.38,0,0,0,0-.75H50.8a.38.38,0,0,0,0,.75Z"/><path class="cls-7" d="M50.8,288.28H290.11a.38.38,0,0,0,0-.75H50.8a.38.38,0,0,0,0,.75Z"/><path class="cls-7" d="M50.8,302.4H290.11a.38.38,0,0,0,0-.75H50.8a.38.38,0,0,0,0,.75Z"/><path class="cls-7" d="M50.8,317.83H290.11a.38.38,0,0,0,0-.75H50.8a.38.38,0,0,0,0,.75Z"/><path class="cls-7" d="M50.8,332H290.11a.38.38,0,0,0,0-.75H50.8a.38.38,0,0,0,0,.75Z"/><path class="cls-7" d="M50.8,346.07H290.11a.38.38,0,0,0,0-.75H50.8a.38.38,0,0,0,0,.75Z"/><g class="cls-12"><path class="cls-8" d="M275,87.89c3.9,17.09-.88,36.41-10.29,50.19s-22.62,23.27-36.25,30.68-27.93,13-41.45,20.72c-10.29,5.86-20.06,12.89-29.81,19.9-3.11,2.24-6.59,5.2-6.68,9.49-.12,5.86,5.84,8.83,10.7,10,9.1,2.25,19.08,4.41,25.17,12.7,6.22,8.47,6.48,21,4.45,32-3.35,18-11.89,34.22-22.33,47.95S147.26,345,135,356.46l-84.39-.13c39.15-15.15,82.83-44.82,113-78,6.11-6.73,12.48-15.77,10.36-25.31-1.82-8.19-9.3-12.8-16.35-14.41s-14.48-1.26-21.19-4.29S123.69,223.16,125.59,215c1.15-4.89,4.74-8.37,8.22-11.36,28.29-24.2,62.57-38,89.1-64.79,6.23-6.31,12.19-13.69,14.51-23s-4.93-23.39-12.16-28Z"/></g><rect class="cls-5" x="216.5" y="335.16" width="86.4" height="49.25"/><rect class="cls-6" x="216.5" y="335.16" width="86.4" height="49.25"/><rect class="cls-5" x="252.5" y="304.35" width="50.4" height="30.81"/><rect class="cls-9" x="252.5" y="304.35" width="50.4" height="30.81"/><rect class="cls-8" x="287.34" y="308.38" width="12.1" height="6.62"/><rect class="cls-8" x="239.22" y="342.07" width="18.43" height="12.96"/><rect class="cls-6" x="216.5" y="335.16" width="16.35" height="49.25"/><rect class="cls-6" x="252.5" y="304.35" width="14.24" height="30.81"/><path class="cls-7" d="M302.89,334.39H216.5a.38.38,0,0,0,0,.75h86.39a.38.38,0,0,0,0-.75Z"/><path class="cls-5" d="M74.26,173a15.49,15.49,0,1,0-2.81,25.35l3.62,1.32a.54.54,0,0,0,.72-.52L75.67,195l.17-.18A15.49,15.49,0,0,0,74.26,173Z"/><path class="cls-13" d="M46.51,181.84a15.35,15.35,0,0,1,7.2-12.56"/><path class="cls-13" d="M55.72,168.14a5.55,5.55,0,0,1,2.09-.93"/><polygon class="cls-8" points="63.48 191.73 55.61 185.87 57.65 183.12 62.93 187.05 70.18 178.4 72.81 180.6 63.48 191.73"/><polygon class="cls-14" points="99.78 410.9 106.5 410.9 105.94 425.56 99.23 425.56 99.78 410.9"/><path class="cls-7" d="M108,425.27c1.7,1.41,5.58,2.88,10.75,4,1.1.2.78,2.8-2,2.8s-9-.2-11-.2c-3.32,0-5.19.19-7.88.19h-.22a.94.94,0,0,1-.76-1.1l1.35-5.63a.57.57,0,0,1,.56-.44h8.16A1.64,1.64,0,0,1,108,425.27Z"/><path class="cls-5" d="M107.36,425.72a.21.21,0,0,1-.12-.14.12.12,0,0,1,.08-.14c.24-.16,2.4-1.41,3.14-1a.42.42,0,0,1,.27.42.86.86,0,0,1-.32.81,2.09,2.09,0,0,1-1.34.31A8.9,8.9,0,0,1,107.36,425.72Zm2.73-1.09a6.63,6.63,0,0,0-2.33.87,3.45,3.45,0,0,0,2.39-.11.63.63,0,0,0,.22-.54c0-.17-.11-.17-.11-.17a.34.34,0,0,0-.2,0Z"/><path class="cls-5" d="M107.29,425.78a.16.16,0,0,1-.08-.14c0-.13.18-1.94,1-2.54a.89.89,0,0,1,.67-.19.52.52,0,0,1,.51.4c.13.66-1.21,2.05-1.9,2.41h-.08Zm1.43-2.63a.5.5,0,0,0-.35.16,3.36,3.36,0,0,0-.79,2c.68-.49,1.54-1.54,1.45-1.95,0-.05,0-.15-.23-.15h-.08Z"/><polygon class="cls-14" points="63.58 410.94 70.3 410.94 69.74 425.6 63.03 425.6 63.58 410.94"/><path class="cls-7" d="M71.76,425.31c1.7,1.4,5.58,2.87,10.75,3.94,1.1.2.78,2.8-2,2.8s-9-.2-11-.2c-3.32,0-5.19.19-7.88.19h-.23a.94.94,0,0,1-.75-1.1L62,425.31a.58.58,0,0,1,.56-.45h8.16A1.6,1.6,0,0,1,71.76,425.31Z"/><path class="cls-5" d="M71.16,425.75a.19.19,0,0,1-.12-.14.13.13,0,0,1,.08-.14c.24-.15,2.4-1.41,3.14-1a.42.42,0,0,1,.27.42.86.86,0,0,1-.32.81,2.16,2.16,0,0,1-1.34.32A9.77,9.77,0,0,1,71.16,425.75Zm2.73-1.09a6.63,6.63,0,0,0-2.33.87,3.34,3.34,0,0,0,2.39-.11.62.62,0,0,0,.22-.53c0-.18-.11-.18-.11-.18a.34.34,0,0,0-.2,0Z"/><path class="cls-5" d="M71.09,425.81a.15.15,0,0,1-.08-.14c0-.12.18-1.94,1-2.53a.8.8,0,0,1,.67-.19.5.5,0,0,1,.51.39c.13.66-1.21,2.05-1.9,2.41h-.08Zm1.43-2.62a.49.49,0,0,0-.35.15,3.43,3.43,0,0,0-.8,2c.69-.5,1.55-1.55,1.46-2,0-.05,0-.15-.23-.15h-.08Z"/><path class="cls-7" d="M66.6,281.85h42c3.31,18.06,6.36,81.95-1.07,138.88l-11.5,0s.06-75.38-5.11-103.17c-1.19,14.95-6.73,43.2-7.95,51.67-3,20.83-9.83,52.21-9.83,52.21h-12s2.42-43.58,3.58-64.07C66,335.15,66.56,286.41,66.6,281.85Z"/><path class="cls-14" d="M107.63,242.45s-2.09,20.2-.68,22.9,29.05,9.2,29.05,9.2l1.51-6.15s-20.82-8.27-21.31-9.87c-.24-.79,1-13.62,1-13.62Z"/><path class="cls-14" d="M143.7,278.64A13.09,13.09,0,0,0,142,276s-5.6-.31-7.34-1.31a7.05,7.05,0,0,1-1.1-.77l-7.82-2.06,1.64-7.09,9.2,3.21c1,0,9.72.19,11.69,1.59h0s4.8,4.08,5.37,4.91-.48,1.82-1.28,1.43c-.39-.19-1.54-1.3-1.8-1.35a3.7,3.7,0,0,1-.13,2.42c-.7.88-2.65-2.52-2.92-3,.24.43,1.84,3.41,1,4.78s-1.43-.09-1.43-.09l-1.64-2.81s1.12,2.7.6,4.22C145.78,280.83,144.59,280.4,143.7,278.64Z"/><path class="cls-7" d="M135.75,271.54a3.15,3.15,0,0,0,2.91,1.6c.79,0,1.59-.08,2.38,0a4.9,4.9,0,0,1,2.1.71,4.57,4.57,0,0,0,1.7.93,1.26,1.26,0,0,0,1.3-.56c.66-1.18-1.09-2.37-1.87-3a14.08,14.08,0,0,0-4.23-2.19c-.46-.15-.66.58-.2.72a13.81,13.81,0,0,1,3.86,2,6.59,6.59,0,0,1,1.66,1.5c.24.38.17.81-.37.77a2,2,0,0,1-.94-.47,6.2,6.2,0,0,0-3.92-1.2c-1.29,0-3.09.22-3.73-1.2-.2-.44-.85-.06-.65.37Z"/><path class="cls-5" d="M106,254.65l14.91-2.21s-2.94-24.56-9-26C99.39,223.39,106,254.65,106,254.65Z"/><path class="cls-15" d="M106,254.65l14.91-2.21s-2.94-24.56-9-26C99.39,223.39,106,254.65,106,254.65Z"/><path class="cls-5" d="M66.32,289.81c17.42,5.25,32.4,7.24,45,1.18,0-6.15-3-13.31-2.44-20.48,1.62-19.7,3.63-43.85,3.63-43.85-23.44-12.26-37.15-4.42-37.15-4.42C69.39,241.5,66.32,289.81,66.32,289.81Z"/><path class="cls-15" d="M66.32,289.81c17.42,5.25,32.4,7.24,45,1.18,0-6.15-3-13.31-2.44-20.48,1.62-19.7,3.63-43.85,3.63-43.85-23.44-12.26-37.15-4.42-37.15-4.42C69.39,241.5,66.32,289.81,66.32,289.81Z"/><polygon class="cls-6" points="69.36 256.37 73.01 250.67 75.95 251.45 79.64 236.91 70.29 248.93 69.36 256.37"/><path class="cls-5" d="M77.84,220.92s5,1,4.87,7.41-2.86,25.15-6.25,27.39a11.45,11.45,0,0,1-7.19,1.71s-4.35,28.29-4,29.7,18,4.56,28.69,4.33,17.49-3.55,17.49-3.55-.82-13-.49-17,1.58-44.71,1.58-44.71l-7-3.11-6.67,19.67-10.5-23.14S81.9,219.43,77.84,220.92Z"/><path class="cls-16" d="M66.8,274.22s16.27,4.09,28.92,4.09,15.21-1.58,15.21-1.58v-5.44a143.57,143.57,0,0,1-17.79,1.23c-10.91,0-25.43-4.56-25.43-4.56Z"/><path class="cls-16" d="M65.64,282.81s16.51,3.27,29.51,3.27,16.09-2,16.09-2l-.24-5.18a142.9,142.9,0,0,1-18.5,1.36c-11.22,0-26-4.39-26-4.39Z"/><path class="cls-7" d="M99,242.45c-.76,16.29-1.57,32.58-2.33,48.87,0,.48.73.48.75,0,.76-16.29,1.57-32.58,2.33-48.87,0-.49-.73-.48-.75,0Z"/><path class="cls-7" d="M89,200.07s20.15-.5,22.92-1a7.5,7.5,0,0,0,4.4-2.83s-18.7-3-18.86-3-8,2.25-8,2.25Z"/><path class="cls-14" d="M102.56,222.49c-3.28-2-1.59-3.88-1.16-9l-7.07-3.94c-.48,1.07-2.32,9.24-2.57,10.44,0,0,1.41,5,7.69,5.19C101.77,225.24,102.56,222.49,102.56,222.49Z"/><path class="cls-17" d="M101,216.73a6.46,6.46,0,0,0-.15,4.19c-2-1.53-5-2.95-6.18-8Z"/><path class="cls-14" d="M92.74,198.68c-1,6.95-1.7,10.85,1.05,15.06,4.14,6.33,13.06,5,16.12-1.55,2.75-5.88,3.92-16.26-2.26-20.31A9.68,9.68,0,0,0,92.74,198.68Z"/><path class="cls-7" d="M102.15,202.7c-.14.7.11,1.34.57,1.43s1-.4,1.1-1.11-.11-1.34-.57-1.43S102.3,202,102.15,202.7Z"/><path class="cls-7" d="M109,204.26c-.15.7.11,1.34.57,1.43s1-.4,1.1-1.11-.11-1.34-.58-1.43S109.15,203.55,109,204.26Z"/><path class="cls-18" d="M106.85,203.4s1.5,3.95,1.92,5.52a3.38,3.38,0,0,1-2.76-.08Z"/><path class="cls-7" d="M101.12,199a.32.32,0,0,0,.34,0,2.74,2.74,0,0,1,2.43-.05.33.33,0,0,0,.46-.12.32.32,0,0,0-.12-.45,3.31,3.31,0,0,0-3.07,0,.32.32,0,0,0-.15.44A.24.24,0,0,0,101.12,199Z"/><path class="cls-7" d="M112.66,201.92a.3.3,0,0,0,.18-.06.33.33,0,0,0,.1-.46,3.33,3.33,0,0,0-2.64-1.53.33.33,0,0,0-.33.34.32.32,0,0,0,.33.33,2.61,2.61,0,0,1,2.08,1.23A.32.32,0,0,0,112.66,201.92Z"/><path class="cls-19" d="M103.36,211a3.65,3.65,0,0,1-2.56-2.78"/><path class="cls-7" d="M91,191.85c-1.38,2-1.67,6.67-.82,12.37.93,6.16,3.14,8.72,3.14,8.72-1.56-2.91-1-8.48,0-8.63s.9.94.9.94c2.1-1.36,4-5.08,3.24-7.78a2.25,2.25,0,0,1,1.41-2.72l-.06-3Z"/><path class="cls-14" d="M88.85,203.84a6.56,6.56,0,0,0,2.44,4.45c1.84,1.44,3.67,0,3.92-2.19.23-2-.45-5.12-2.66-5.7A3,3,0,0,0,88.85,203.84Z"/><path class="cls-20" d="M90.81,202.27a1.27,1.27,0,0,1,1.41-.17,2.22,2.22,0,0,1,1,1.1,3.68,3.68,0,0,1,.31,1.77"/><path class="cls-7" d="M89.33,193.28a5.33,5.33,0,0,1,4.78-4.56c1.94-2.14,8.68-3.59,14.91-.28s4.69,8.55,4,9.1c-1.48,1.12-3.21-3.48-3.21-3.48s1.52,2.83-.48,2.93-6.12-2.82-6.12-2.82,1,1.37-.16,2.11-4.16-1.53-4.16-1.53S88.46,198.83,89.33,193.28Z"/><path class="cls-5" d="M116.8,196c-6.09,4.13-17.45-2.73-22.6-.79S89,200,89,200.07c-3.28.12-.41-4-.41-4-.85-9.72,6.46-13.4,15.91-12.17,8.83,1.16,9.1,9.6,9.1,9.6Z"/><path class="cls-17" d="M113.6,193.48c-2.76,2.64-14.63-1.1-19.5-.81S88.59,196,88.59,196c-.85-9.72,6.46-13.39,15.91-12.17C113.32,185,113.6,193.48,113.6,193.48Z"/><path class="cls-5" d="M97.59,184.39c4-.31,7.31,3.49,8.36,5.91s4.58,2.48,5.25.22a3.37,3.37,0,0,0,0-1.61,6.67,6.67,0,0,0-5-4.94c-4.28-1.16-11.82-2.33-14.63,2.71A9.6,9.6,0,0,1,97.59,184.39Z"/><g class="cls-12"><path class="cls-7" d="M89.89,189.76a28,28,0,0,1,5.53-1.06,25.62,25.62,0,0,1,2.62-.18,2.18,2.18,0,0,1,1.43.38.84.84,0,0,1,.1,1.28c-.67.7-2,.45-2.85.51s-1.61.13-2.41.24a39.12,39.12,0,0,0-5.13,1.13.38.38,0,0,0,.2.73,37.45,37.45,0,0,1,4.8-1.09c.81-.12,1.63-.2,2.45-.25a10.63,10.63,0,0,0,2.59-.2,1.69,1.69,0,0,0,.78-2.88,2.89,2.89,0,0,0-2-.59c-.85,0-1.69.09-2.53.17A29.28,29.28,0,0,0,89.69,189a.37.37,0,0,0,.2.72Z"/></g><g id="freepik--Boxes--inject-466"><path class="cls-21" d="M89.44,409.9v-109A23.06,23.06,0,0,0,85.3,287.7l-3.81-5.45h67.67L153,287.7a23.06,23.06,0,0,1,4.14,13.19v108"/><path class="cls-22" d="M89.44,409.9v-109A23.06,23.06,0,0,0,85.3,287.7l-3.77-5.39s0-.06,0-.06h67.59L153,287.7a23.06,23.06,0,0,1,4.14,13.19v108"/><path class="cls-7" d="M233.25,419.78a7,7,0,1,1-7,7A7,7,0,0,1,233.25,419.78Z"/><path class="cls-15" d="M236.76,426.79a3.51,3.51,0,1,0-3.51,3.5h0a3.5,3.5,0,0,0,3.51-3.49Z"/><path class="cls-7" d="M232.41,428.35h0a2.66,2.66,0,0,1-2.5-1.75l-4.13-11.31h9.3v10.39a2.67,2.67,0,0,1-2.67,2.67Z"/><path class="cls-23" d="M232.41,428.35h0a2.66,2.66,0,0,1-2.5-1.75l-4.13-11.31h9.3v10.39a2.67,2.67,0,0,1-2.67,2.67Z"/><path class="cls-7" d="M155.32,419.78a7,7,0,1,1-7,7A7,7,0,0,1,155.32,419.78Z"/><path class="cls-15" d="M158.83,426.79a3.51,3.51,0,1,0-3.51,3.5h0a3.5,3.5,0,0,0,3.51-3.49Z"/><path class="cls-7" d="M154.48,428.35h0a2.66,2.66,0,0,1-2.5-1.75l-4.13-11.31h9.3v10.39a2.67,2.67,0,0,1-2.67,2.67Z"/><path class="cls-23" d="M154.48,428.35h0a2.66,2.66,0,0,1-2.5-1.75l-4.13-11.31h9.3v10.39a2.67,2.67,0,0,1-2.67,2.67Z"/><path class="cls-7" d="M245.3,407.14v6.62a2.23,2.23,0,0,1-2.23,2.23H86.47a2.23,2.23,0,0,1-2.24-2.23v-6.62Z"/><path class="cls-15" d="M245.3,407.14v6.62a2.23,2.23,0,0,1-2.23,2.23H86.47a2.23,2.23,0,0,1-2.24-2.23v-6.62Z"/><path class="cls-23" d="M189.64,407.14v6.62A2.23,2.23,0,0,1,187.4,416H86.47a2.23,2.23,0,0,1-2.24-2.23v-6.62Z"/><path class="cls-7" d="M176.8,419.78a7,7,0,1,1-7,7A7,7,0,0,1,176.8,419.78Z"/><path class="cls-24" d="M180.3,426.79a3.51,3.51,0,1,0-3.51,3.5h0a3.5,3.5,0,0,0,3.5-3.49Z"/><path class="cls-7" d="M176,428.35h0a2.66,2.66,0,0,1-2.5-1.75l-4.13-11.31h9.3v10.39a2.67,2.67,0,0,1-2.67,2.67Z"/><path class="cls-15" d="M176,428.35h0a2.66,2.66,0,0,1-2.5-1.75l-4.13-11.31h9.3v10.39a2.67,2.67,0,0,1-2.67,2.67Z"/><path class="cls-7" d="M98.86,419.78a7,7,0,1,1-7,7A7,7,0,0,1,98.86,419.78Z"/><path class="cls-24" d="M102.37,426.79a3.51,3.51,0,1,0-3.51,3.5h0a3.5,3.5,0,0,0,3.51-3.49Z"/><path class="cls-7" d="M98,428.35h0a2.66,2.66,0,0,1-2.5-1.75l-4.13-11.31h9.3v10.39A2.67,2.67,0,0,1,98,428.35Z"/><path class="cls-15" d="M98,428.35h0a2.66,2.66,0,0,1-2.5-1.75l-4.13-11.31h9.3v10.39A2.67,2.67,0,0,1,98,428.35Z"/></g><rect class="cls-5" x="175.32" y="345.66" width="78.27" height="44.61" transform="translate(-153.51 582.42) rotate(-90)"/><rect class="cls-6" x="157.32" y="363.67" width="78.27" height="8.61" transform="translate(-171.52 564.42) rotate(-90)"/><rect class="cls-8" x="218.97" y="389.5" width="15.55" height="11.74" transform="translate(-168.63 622.11) rotate(-90)"/><rect class="cls-5" x="114.91" y="362.5" width="78.27" height="44.61"/><rect class="cls-6" x="114.91" y="362.15" width="18.42" height="44.98"/><rect class="cls-5" x="147.52" y="334.59" width="45.66" height="27.92"/><rect class="cls-8" x="179.09" y="338.24" width="10.96" height="6"/><rect class="cls-8" x="138.39" y="366.66" width="16.7" height="11.74"/><rect class="cls-6" x="147.52" y="334.59" width="12.9" height="27.92"/><path class="cls-7" d="M193.18,361.77H114.91a.38.38,0,0,0,0,.75h78.27a.38.38,0,0,0,0-.75Z"/><path class="cls-14" d="M64.71,239.72s-7.9,18.71-7.33,21.7S82.47,278.7,82.47,278.7l3.24-5.44s-17.5-14-17.5-15.66c0-.82,4.9-12.74,4.9-12.74Z"/><path class="cls-5" d="M74.47,250,61,244.43c-.92-.13,9.54-24.42,16.85-22.34C86.91,225.08,74.47,250,74.47,250Z"/><path class="cls-15" d="M74.47,250,61,244.43c-.92-.13,9.54-24.42,16.85-22.34C86.91,225.08,74.47,250,74.47,250Z"/><path class="cls-14" d="M88.64,284.86a12.91,12.91,0,0,0-.84-3s-5.27-1.93-6.64-3.39a7.76,7.76,0,0,1-.83-1.06l-6.88-4.25,3.64-6.31L85,272.59c1,.3,9.25,3,10.71,4.94h0s3.4,5.29,3.7,6.25a1,1,0,0,1-1.64,1c-.32-.3-1.09-1.7-1.33-1.83-.14,1.12.19,2-.82,2.28s-1.81-3.19-1.92-3.72c.1.49,1.15,3.5,0,4.56s-1.74-.2-1.74-.2l-.75-3.17s.35,3.65-.66,4.21C89.78,287.31,89,286.8,88.64,284.86Z"/><path class="cls-7" d="M91.46,284.83a16.78,16.78,0,0,1-.2-2.56c0-.45-.07-.91-.14-1.35a2.59,2.59,0,0,0-.33-1c-.26-.4-.91,0-.65.38a2.33,2.33,0,0,1,.27.88c.06.41.08.84.11,1.26a17,17,0,0,0,.22,2.57c.1.47.82.27.72-.2Z"/><path class="cls-7" d="M94.8,278.2A12.85,12.85,0,0,1,96,282.84c0,.48.79.48.75,0a14.08,14.08,0,0,0-1.31-5c-.21-.44-.85-.06-.65.38Z"/><path class="cls-7" d="M92.77,279.65c.1.47.23.94.32,1.42,0,.09,0,.17,0,.26v.08h0a1,1,0,0,1,0,.17c0,.28,0,.57.07.85a.39.39,0,0,0,.38.38.37.37,0,0,0,.37-.38,13,13,0,0,0-.16-1.53c-.09-.49-.22-1-.33-1.45a.37.37,0,1,0-.72.2Z"/></g></g></svg>